<?xml version="1.0" encoding="UTF-8"?><svg id="Layer_2" xmlns="http://www.w3.org/2000/svg" viewBox="0 0 527.4 656.17"><defs><style>.cls-1{fill:#4285f4;}.cls-2{fill:#f9ab00;}.cls-3{fill:#fbbc05;}.cls-4{fill:#0e3ec1;}.cls-5{fill:#1a73e8;}.cls-6{fill:#34a853;}.cls-7{fill:#ea4335;}.cls-8{fill:#c5221f;}.cls-9{fill:#1e8e3e;}</style></defs><g id="Layer_1-2"><path class="cls-5" d="M213.18,486.32c.97-14.26,2.47-28.57,3.92-42.42,1.58-15.09,3.21-30.69,4.1-45.8.4-7.27.75-14.25.97-21.01-46.2-16.97-79.24-61.41-79.24-113.42,0-21.69,5.79-42.93,16.75-61.43l-122.98-72.86C12.7,169.92,0,216.36,0,263.67c0,127.7,91.24,234.48,211.95,258.61-.02-11.69.39-23.65,1.23-35.96Z"/><path class="cls-2" d="M492.24,132.03l-123.86,71.35c33.24,57.71,13.34,131.7-44.37,164.95-5.37,3.09-10.94,5.74-16.67,7.96.5,21.24,2.78,42.84,5.12,65.06,2.76,26.18,5.6,53.15,5.43,80.41,27.07-5.7,53.24-15.62,77.46-29.58,126.01-72.59,169.47-234.15,96.88-360.16Z"/><path class="cls-9" d="M369.35,205.04c-10.4-18.81-25.79-34.56-44.5-45.54-57.44-33.71-131.59-14.4-165.3,43.04l-123.28-72.35C109.87,4.78,271.78-37.38,397.2,36.22c40.81,23.95,74.43,58.4,97.24,99.64l-125.08,69.18Z"/><circle class="cls-6" cx="262.18" cy="71.98" r="36.46"/><circle class="cls-6" cx="387.13" cy="116.21" r="36.46"/><circle class="cls-1" cx="145.09" cy="415.07" r="36.46"/><circle class="cls-3" cx="382.64" cy="415.07" r="36.46"/><circle class="cls-1" cx="83.45" cy="329.15" r="36.46"/><circle class="cls-3" cx="443.92" cy="329.15" r="36.46"/><circle class="cls-1" cx="74.31" cy="228.73" r="36.46"/><circle class="cls-3" cx="452.92" cy="228.73" r="36.46"/><circle class="cls-6" cx="139.7" cy="116.7" r="36.46"/><path class="cls-5" d="M292.62,310.89c-16.07,73.56,7.53,147.11,4.78,221.02-.82,37.64-6.3,75.36-21.17,110.51-1.34,3.1-2.72,6.21-4.23,9.31-2.84,5.84-11.17,5.95-14.06.13-11.84-23.78-18.33-49.88-22.15-75.74-3.91-29.4-4.38-58.88-2.36-88.41,2.01-29.46,6.3-58.93,8.04-88.41,1.63-29.47,2.94-58.94-4.27-88.41-3.75-15.31,5.62-30.76,20.93-34.51,20.5-5.29,39.78,14.12,34.51,34.51h0Z"/><path class="cls-4" d="M258.12,276.38c-15.31,3.75-24.68,19.2-20.93,34.51,5.9,24.08,6.1,48.16,5.09,72.24,6.98,1.25,14.16,1.9,21.5,1.9,8.05,0,15.9-.79,23.51-2.29-.9-23.96.12-47.9,5.35-71.85,5.27-20.38-14.01-39.79-34.51-34.51Z"/><path class="cls-7" d="M309.88,272.98c-1.46,13.71-7.04,26.66-17.3,37.89,0,0-55.36.04-55.36.04-18.67-18.78-21.64-40.66-19.95-51.82,3.4-22.54,15.3-32.2,26.74-51.1,2.23-3.68,7.13-10.95,8.74-20.42.61-3.57-.82-7.98,2.62-10.56,3.41-2.56,8.18.19,11.38,3.02,18.09,15.97,31.8,36.85,39.25,59.81,3.64,11.22,5.03,22.42,3.89,33.16Z"/><path class="cls-8" d="M263.56,195.74c1.21,18.43-14.46,32.91-20.27,48.88-6.44,16.99-3.95,30.91,8.77,44,2.69,2.6,2.76,6.9.16,9.59-2.83,2.97-7.78,2.68-10.25-.58-6.3-8.2-10.38-17.31-11.5-27.62-.83-9.76,2.18-19.7,6.66-28.17,8.06-15.92,25.09-27.25,26.43-46.09h0Z"/></g></svg>