<?xml version="1.0" encoding="UTF-8"?>
<svg id="trust_logo_192" xmlns="http://www.w3.org/2000/svg" width="192" height="192" viewBox="0 0 192 192">
  <g id="bounding_box" data-name="bounding box">
    <rect width="192" height="192" fill="none" stroke-width="0"/>
  </g>
  <circle id="green" cx="64" cy="36" r="14" fill="#34a753" stroke-width="0"/>
  <circle id="yellow" cx="128" cy="36" r="14" fill="#fabb04" stroke-width="0"/>
  <g id="red">
    <path d="m45.088,122.971c-2.56,0-5.119-.977-7.072-2.93-6.421-6.423-9.957-14.96-9.957-24.041s3.536-17.618,9.957-24.041c13.26-13.258,34.829-13.257,48.085,0l16.971,16.971c3.905,3.905,3.905,10.237,0,14.143-3.906,3.904-10.236,3.904-14.143,0l-16.971-16.971c-5.457-5.459-14.339-5.459-19.8,0-2.644,2.645-4.1,6.16-4.1,9.899s1.456,7.255,4.102,9.9c3.904,3.905,3.903,10.237-.002,14.143-1.952,1.951-4.512,2.928-7.07,2.928Z" fill="#e94335" stroke-width="0"/>
  </g>
  <g id="blue">
    <path d="m96.015,169.746c-5.122,0-10.243-1.95-14.143-5.849l-18.645-18.645c-3.766-3.766-4.211-9.896-.695-13.896,3.853-4.384,10.536-4.545,14.598-.486l11.814,11.814c3.905,3.905,10.237,3.905,14.142,0l36.401-36.401c5.588-5.587,5.829-14.57.539-20.024l-.155-.157c-3.45-3.45-8.515-4.857-13.259-3.696-4.962,1.215-10.235-1.313-12.026-6.098-2.119-5.66,1.157-11.751,6.851-13.223,11.621-3.005,24.101.397,32.576,8.874l.34.345c12.882,13.28,12.544,34.854-.724,48.122l-43.472,43.473c-3.899,3.898-9.021,5.849-14.143,5.849Z" fill="#1a73e7" stroke-width="0"/>
  </g>
</svg>